<?xml version="1.0" encoding="utf-8"?>
<!-- Generator: Adobe Illustrator 26.0.2, SVG Export Plug-In . SVG Version: 6.00 Build 0)  -->
<svg version="1.1" id="Layer_1" xmlns="http://www.w3.org/2000/svg" xmlns:xlink="http://www.w3.org/1999/xlink" x="0px" y="0px"
	 viewBox="0 0 182 45" style="enable-background:new 0 0 182 45;" xml:space="preserve">
<style type="text/css">
	.st0{fill-rule:evenodd;clip-rule:evenodd;fill:#4F8BC4;}
	.st1{fill-rule:evenodd;clip-rule:evenodd;fill:#3B7EBD;}
	.st2{fill-rule:evenodd;clip-rule:evenodd;fill:#6298CA;}
	.st3{fill-rule:evenodd;clip-rule:evenodd;fill:#4584C0;}
	.st4{fill-rule:evenodd;clip-rule:evenodd;fill:#4584B4;}
	.st5{fill:#3B7EBD;}
</style>
<g>
	<path class="st0" d="M27.37,9.28c-2.51,0.75-4.64,1.54-6.69-0.02C22.87,8.68,25.18,8.69,27.37,9.28z"/>
	<path class="st1" d="M20.13,34c1.71-0.66,3.57-1.59,5.56-0.62c0.58,0.29,1.01,0.59,1.46,0.81C24.84,34.77,22.41,34.71,20.13,34
		L20.13,34z"/>
	<path class="st2" d="M36.83,22.48c-0.6,0.16-1.3,0.37-2.13,0.64c-4.62,1.52-3.92-1.64-6.91-0.92c-3.2,0.77-5.77,2.28-8.24,0.31
		c-1.81-1.44-5.67,1.01-8.32,1.01c-0.08-0.6-0.13-1.21-0.13-1.81c0-0.23,0.01-0.46,0.02-0.69c0.42-0.12,0.83-0.28,1.22-0.48
		c4.26-2.07,4.98,0.09,7.39,0.61c2.42,0.52,5.22-2.61,8.33-1.1c1.74,0.85,2.04,1.89,6.07,0.18c1.04-0.44,1.86-0.59,2.56-0.57
		c0.11,0.67,0.16,1.36,0.16,2.04C36.86,21.97,36.85,22.22,36.83,22.48z"/>
	<path class="st0" d="M32.09,18.68c-4.62,1.52-3.92-1.64-6.91-0.92c-3.2,0.77-5.77,2.28-8.24,0.31c-1.22-0.97-3.36-0.18-5.44,0.44
		c0.29-1.15,0.75-2.26,1.35-3.29c1.76,0,2.61,1.14,4.27,1.49c2.42,0.52,5.22-2.61,8.33-1.1c1.74,0.85,2.04,1.89,6.07,0.18
		c1.68-0.71,2.8-0.67,3.7-0.37c0.39,0.7,0.72,1.44,0.97,2.21C35.36,17.72,34.1,18.02,32.09,18.68z"/>
	<path class="st0" d="M15.24,24.98c4.26-2.07,4.98,0.09,7.39,0.61c2.42,0.52,5.22-2.61,8.33-1.1c1.65,0.8,2.01,1.78,5.49,0.42
		c-0.27,1.07-0.68,2.09-1.22,3.05c-2.12-0.1-2.21-1.89-4.54-1.33c-3.2,0.77-5.77,2.28-8.24,0.31c-2.19-1.74-7.36,2.19-9.78,0.63
		c-0.07-0.05-0.15-0.09-0.22-0.14c-0.32-0.63-0.58-1.29-0.78-1.97C12.55,25.76,13.62,25.77,15.24,24.98z"/>
	<path class="st3" d="M18.27,29.43c4.26-2.07,4.98,0.09,7.39,0.61c2.42,0.52,5.22-2.61,8.33-1.1c0.17,0.08,0.32,0.17,0.47,0.25
		c-0.59,0.83-1.28,1.58-2.05,2.25c-2.61,0.77-4.81,1.65-6.94-0.04c-1.9-1.52-6.06,1.26-8.71,0.99c-1.17-0.79-2.2-1.77-3.06-2.9
		C14.8,30.07,16.01,30.52,18.27,29.43z"/>
	<path class="st4" d="M33.62,13.17c-0.81-0.01-2.14,0.26-4.59,1.06c-4.62,1.52-3.92-1.64-6.91-0.92c-3.18,0.77-5.74,2.26-8.2,0.34
		c0.39-0.49,0.82-0.95,1.28-1.38c2.15-0.34,4.56-2.39,7.2-1.11c1.74,0.85,2.04,1.89,6.07,0.18c0.93-0.39,1.69-0.56,2.33-0.57
		C31.85,11.44,32.8,12.25,33.62,13.17L33.62,13.17z"/>
</g>
<g>
	<path class="st5" d="M45.78,27V14.89h1.7V27H45.78z M46.84,21.84v-1.62h6.72v1.62H46.84z M52.66,27V14.89h1.7V27H52.66z"/>
	<path class="st5" d="M64.69,14.89L61,22.08V27h-1.7v-4.92l-3.69-7.19h1.89l2.65,5.46l2.65-5.46H64.69z"/>
	<path class="st5" d="M65.94,27V14.89h1.7V27H65.94z M67.09,27v-1.62h2.74c0.89,0,1.59-0.23,2.08-0.7c0.49-0.46,0.74-1.12,0.74-1.96
		v-3.56c0-0.84-0.25-1.5-0.74-1.96c-0.49-0.46-1.18-0.7-2.08-0.7h-2.74v-1.62h2.69c1.47,0,2.6,0.38,3.4,1.14
		c0.8,0.76,1.2,1.83,1.2,3.2v3.43c0,0.92-0.18,1.7-0.54,2.34c-0.36,0.65-0.89,1.14-1.57,1.48c-0.69,0.34-1.52,0.51-2.5,0.51H67.09z"
		/>
	<path class="st5" d="M77.13,27V14.88h1.7V27H77.13z M77.88,21.88v-1.62h4.13c0.49,0,0.89-0.17,1.19-0.52s0.45-0.8,0.45-1.37
		s-0.15-1.02-0.45-1.37s-0.7-0.52-1.19-0.52h-4.13v-1.62h4.06c0.71,0,1.32,0.15,1.85,0.44c0.53,0.29,0.94,0.7,1.23,1.22
		s0.44,1.14,0.44,1.84c0,0.7-0.15,1.31-0.44,1.84c-0.29,0.52-0.7,0.93-1.23,1.22s-1.14,0.44-1.85,0.44H77.88z M83.95,27l-2.77-5.5
		l1.69-0.38l3.1,5.88H83.95z"/>
	<path class="st5" d="M87.09,27l4.46-12.11H93L97.47,27h-1.83l-3.36-9.77L88.92,27H87.09z M89.15,24.34v-1.62h6.37v1.62H89.15z"/>
</g>
</svg>
