<svg width="1440" height="208" viewBox="0 0 1440 208" fill="none" xmlns="http://www.w3.org/2000/svg">
<path d="M0 86V-2H1440V109.5C1440 109.5 1284.04 194.871 1081 86C791 -69.5 651.457 229 421 146.5C250.957 85.627 232.5 9 0 86Z" fill="url(#paint0_linear_4683_442)"/>
<path d="M0 93.4358V-2H1440V118.921C1440 118.921 1284.04 211.507 1081 93.4358C791 -75.2036 651.457 248.519 421 159.048C250.957 93.0312 232.5 9.92947 0 93.4358Z" fill="url(#paint1_linear_4683_442)" fill-opacity="0.2"/>
<path d="M0 101.524V-2H1440V129.169C1440 129.169 1284.04 229.6 1081 101.524C791 -81.4073 651.457 269.749 421 172.696C250.957 101.085 232.5 10.9404 0 101.524Z" fill="url(#paint2_linear_4683_442)" fill-opacity="0.2"/>
<path d="M0 111.229V-2H1440V141.466C1440 141.466 1284.04 251.313 1081 111.229C791 -88.8517 651.457 295.226 421 189.074C250.957 110.749 232.5 12.1536 0 111.229Z" fill="url(#paint3_linear_4683_442)" fill-opacity="0.2"/>
<defs>
<linearGradient id="paint0_linear_4683_442" x1="1443.01" y1="23.4996" x2="-8.001" y2="24.9699" gradientUnits="userSpaceOnUse">
<stop stop-color="#B7D6FF"/>
<stop offset="0.0001" stop-color="#92D6FC"/>
<stop offset="0.28087" stop-color="#9CD5FC"/>
<stop offset="0.512511" stop-color="#A8D4FE"/>
<stop offset="0.73997" stop-color="#B1D4FF"/>
<stop offset="1" stop-color="#B7D6FF"/>
</linearGradient>
<linearGradient id="paint1_linear_4683_442" x1="1443.01" y1="25.6542" x2="-8.00122" y2="27.01" gradientUnits="userSpaceOnUse">
<stop stop-color="#B7D6FF"/>
<stop offset="0.0001" stop-color="#92D6FC"/>
<stop offset="0.28087" stop-color="#9CD5FC"/>
<stop offset="0.512511" stop-color="#A8D4FE"/>
<stop offset="0.73997" stop-color="#B1D4FF"/>
<stop offset="1" stop-color="#B7D6FF"/>
</linearGradient>
<linearGradient id="paint2_linear_4683_442" x1="1443.01" y1="27.9978" x2="-8.00141" y2="29.2476" gradientUnits="userSpaceOnUse">
<stop stop-color="#B7D6FF"/>
<stop offset="0.0001" stop-color="#92D6FC"/>
<stop offset="0.28087" stop-color="#9CD5FC"/>
<stop offset="0.512511" stop-color="#A8D4FE"/>
<stop offset="0.73997" stop-color="#B1D4FF"/>
<stop offset="1" stop-color="#B7D6FF"/>
</linearGradient>
<linearGradient id="paint3_linear_4683_442" x1="1443.01" y1="30.8101" x2="-8.00159" y2="31.9528" gradientUnits="userSpaceOnUse">
<stop stop-color="#B7D6FF"/>
<stop offset="0.0001" stop-color="#92D6FC"/>
<stop offset="0.28087" stop-color="#9CD5FC"/>
<stop offset="0.512511" stop-color="#A8D4FE"/>
<stop offset="0.73997" stop-color="#B1D4FF"/>
<stop offset="1" stop-color="#B7D6FF"/>
</linearGradient>
</defs>
</svg>
