<svg width="1440" height="201" viewBox="0 0 1440 201" fill="none" xmlns="http://www.w3.org/2000/svg">
<path d="M691.5 103C966.863 249.774 1159 24 1441 121.454V-1.52588e-05H0V77C141 180.5 237.55 168.679 355 103C507 18 557 31.309 691.5 103Z" fill="#A1D4F8"/>
<path opacity="0.4" d="M691.5 113.583C966.863 275.438 1159 26.466 1441 133.933V1.52588e-05H0V84.9119C141 199.047 237.55 186.011 355 113.583C507 19.8496 557 34.5261 691.5 113.583Z" fill="#A1D4F8"/>
<path opacity="0.4" d="M691.5 124.274C966.863 301.362 1159 28.9569 1441 146.539V0H0V92.9036C141 217.781 237.55 203.518 355 124.274C507 21.7178 557 37.7756 691.5 124.274Z" fill="#A1D4F8"/>
<path opacity="0.4" d="M691.5 134.296C966.863 325.665 1159 31.2922 1441 158.356V0H0V100.396C141 235.344 237.55 219.931 355 134.296C507 23.4692 557 40.822 691.5 134.296Z" fill="#A1D4F8"/>
</svg>
