<svg width="1442" height="193" viewBox="0 0 1442 193" fill="none" xmlns="http://www.w3.org/2000/svg">
<path d="M0.499512 70V0H1442V98C1442 98 1419 126.538 1357.5 134.5C1241 149.583 1165.51 10.9982 1020 60.5C923 93.5 858.299 157.197 753.977 139.5C649.655 121.803 605.5 15 482.5 13.5C359.5 12 263 145.5 138.5 145.5C68.4995 145.5 17.3329 95.1667 0.499512 70Z" fill="#EAEEFD"/>
<path opacity="0.4" d="M0 76.5137V0.5H1442V106.919C1442 106.919 1418.99 137.909 1357.47 146.555C1240.93 162.933 1165.41 12.443 1019.85 66.1976C922.82 102.033 858.097 171.202 753.739 151.985C649.381 132.767 605.21 16.7887 482.167 15.1598C359.125 13.5309 262.591 158.5 138.048 158.5C68.0236 158.5 16.8392 103.842 0 76.5137Z" fill="#EAEEFD"/>
<path opacity="0.4" d="M0 84.2113V0.5H1442V117.696C1442 117.696 1418.99 151.824 1357.47 161.345C1240.93 179.382 1165.41 13.6524 1019.85 72.8505C922.82 112.314 858.097 188.489 753.739 167.325C649.381 146.161 605.21 18.4381 482.167 16.6443C359.125 14.8505 262.591 174.5 138.048 174.5C68.0236 174.5 16.8392 114.308 0 84.2113Z" fill="#EAEEFD"/>
<path opacity="0.4" d="M0 92.8711V0.5H1442V129.82C1442 129.82 1418.99 167.478 1357.47 177.985C1240.93 197.887 1165.41 15.013 1019.85 80.3351C922.82 123.881 858.097 207.936 753.739 184.582C649.381 161.229 605.21 20.2938 482.167 18.3144C359.125 16.3351 262.591 192.5 138.048 192.5C68.0236 192.5 16.8392 126.081 0 92.8711Z" fill="#EAEEFD"/>
</svg>
