<svg width="1440" height="188" viewBox="0 0 1440 188" fill="none" xmlns="http://www.w3.org/2000/svg">
<path d="M442 110C196.5 217.756 25.5 65 0 44V0H1440V110C1388.5 77 1316.5 39 1247 39C1129 39 1076 118 942 118C777 118 692.613 0 442 110Z" fill="#EAEEFD"/>
<path d="M442 119.566C196.5 236.693 25.5 70.6527 0 47.8264V0H1440V119.566C1388.5 83.6963 1316.5 42.3916 1247 42.3916C1129 42.3916 1076 128.262 942 128.262C777 128.262 692.613 0 442 119.566Z" fill="#EAEEFD" fill-opacity="0.4"/>
<path d="M442 129.22C196.5 255.805 25.5 76.3576 0 51.6882V0H1440V129.22C1388.5 90.4543 1316.5 45.8145 1247 45.8145C1129 45.8145 1076 138.618 942 138.618C777 138.618 692.613 0 442 129.22Z" fill="#EAEEFD" fill-opacity="0.4"/>
<path d="M442 139.618C196.5 276.387 25.5 82.5013 0 55.847V0H1440V139.618C1388.5 97.7323 1316.5 49.5008 1247 49.5008C1129 49.5008 1076 149.772 942 149.772C777 149.772 692.613 0 442 139.618Z" fill="#EAEEFD" fill-opacity="0.4"/>
</svg>
