<svg width="1440" height="194" viewBox="0 0 1440 194" fill="none" xmlns="http://www.w3.org/2000/svg">
<path d="M241 126.001C152.912 146.264 47 99.9987 0.0654297 83.2L0.078125 9.15527e-05H1439.94V105.999C1314.5 31.4985 1208 21.499 1088 78.5003C838.514 197.009 701.5 48.4985 558 38.9985C414.5 29.4985 351.11 100.674 241 126.001Z" fill="#EAEEFD"/>
<path opacity="0.4" d="M240.956 145.192C152.86 168.541 46.9388 115.229 0 95.8718L0.0126965 0H1440V122.143C1314.55 36.2959 1208.04 24.7733 1088.03 90.4563C838.524 227.015 701.498 55.8851 557.985 44.9382C414.472 33.9913 351.077 116.007 240.956 145.192Z" fill="#EAEEFD"/>
<path opacity="0.4" d="M240.956 164.423C152.86 190.864 46.9388 130.491 0 108.57L0.0126965 0H1440V138.321C1314.55 41.1033 1208.04 28.0546 1088.03 102.437C838.524 257.083 701.498 63.2871 557.985 50.8903C414.472 38.4934 351.077 131.372 240.956 164.423Z" fill="#EAEEFD"/>
<path opacity="0.4" d="M240.956 186.538C152.86 216.536 46.9388 148.043 0 123.173L0.0126965 0H1440V156.925C1314.55 46.6318 1208.04 31.828 1088.03 116.215C838.524 291.661 701.498 71.7994 557.985 57.7352C414.472 43.6709 351.077 149.042 240.956 186.538Z" fill="#EAEEFD"/>
</svg>
