<svg width="1110" height="670" viewBox="0 0 1110 670" fill="none" xmlns="http://www.w3.org/2000/svg">
<path d="M494.987 106.636C700.52 211.317 842.987 43.6358 932.987 49.1358C1008.84 53.7716 1074.24 122.749 998.487 248.136C915.5 385.5 1135 459 1022 565.5C830.709 745.787 601 429 267.5 585.5C209.5 612.717 97 660.5 62.5 533C35.023 431.454 166 376 83.4861 255.136C-39.1509 75.5 252 -17.1213 494.987 106.636Z" fill="#EAEEFD"/>
<path opacity="0.4" d="M493.077 94.5614C705.884 204.563 853.393 28.3601 946.578 34.1396C1025.12 39.011 1092.83 111.493 1014.4 243.252C928.472 387.596 1155.74 464.831 1038.74 576.743C840.681 766.192 602.842 433.307 257.54 597.759C197.488 626.36 81.0064 676.57 45.2854 542.591C16.836 435.886 152.448 377.613 67.0142 250.607C-59.9629 61.8435 241.492 -35.4844 493.077 94.5614Z" fill="#EAEEFD"/>
<path opacity="0.4" d="M491.284 79.9762C710.254 196.18 862.033 10.0421 957.917 16.1475C1038.73 21.2935 1108.4 97.8628 1027.7 237.05C939.287 389.534 1173.14 471.123 1052.75 589.345C848.953 789.476 604.228 437.821 248.926 611.547C187.135 641.76 67.2807 694.802 30.5254 553.268C1.2521 440.546 140.791 378.988 52.8833 244.821C-77.7707 45.4135 232.413 -57.4022 491.284 79.9762Z" fill="#EAEEFD"/>
<path opacity="0.4" d="M488.654 67.2905C716.662 189.514 874.706 -6.26655 974.547 0.155106C1058.7 5.56774 1131.24 86.1038 1047.21 232.502C955.149 392.885 1198.65 478.701 1073.29 603.048C861.087 813.546 606.26 443.674 236.293 626.399C171.951 658.177 47.1497 713.967 8.87725 565.102C-21.6043 446.54 123.694 381.793 32.158 240.675C-103.889 30.9372 219.098 -77.2049 488.654 67.2905Z" fill="#EAEEFD"/>
</svg>
