<svg width="1440" height="219" viewBox="0 0 1440 219" fill="none" xmlns="http://www.w3.org/2000/svg">
<path d="M0 62.5V0H1440V45.5C1299.5 142.145 1162 191.5 935.5 84C798.5 18.9779 741 24 572 119C293.627 275.482 216.5 -6.5 0 62.5Z" fill="#EAEEFD"/>
<path opacity="0.4" d="M0 68.1024V0H1440V49.5785C1299.5 154.886 1162 208.666 935.5 91.5296C798.5 20.6791 741 26.1513 572 129.667C293.627 300.175 216.5 -7.08264 0 68.1024Z" fill="#EAEEFD"/>
<path opacity="0.4" d="M0 74.8378V0H1440V54.4819C1299.5 170.204 1162 229.303 935.5 100.582C798.5 22.7243 741 28.7377 572 142.491C293.627 329.863 216.5 -7.78312 0 74.8378Z" fill="#EAEEFD"/>
<path opacity="0.4" d="M0 81.9474V0H1440V59.6577C1299.5 186.374 1162 251.087 935.5 110.137C798.5 24.8831 741 31.4678 572 156.028C293.627 361.2 216.5 -8.52252 0 81.9474Z" fill="#EAEEFD"/>
</svg>
