<svg width="1440" height="190" viewBox="0 0 1440 190" fill="none" xmlns="http://www.w3.org/2000/svg">
<path d="M381 63C183.888 138.951 75 136.5 0 90V0H1441V63C1441 63 1332.15 -3.04597 1195 53C1044.5 114.5 938.5 178.5 779.5 109.5C620.5 40.5 544.5 0 381 63Z" fill="#A1D4F8"/>
<path opacity="0.4" d="M381 70.0681C183.888 154.541 75 151.814 0 100.097V0H1441V70.0681C1441 70.0681 1332.15 -3.38771 1195 58.9462C1044.5 127.346 938.5 198.526 779.5 121.785C620.5 45.0438 544.5 0 381 70.0681Z" fill="#A1D4F8"/>
<path opacity="0.4" d="M381 77.301C183.888 170.493 75 167.485 0 110.43V0H1441V77.301C1441 77.301 1332.15 -3.7374 1195 65.031C1044.5 140.491 938.5 219.019 779.5 134.356C620.5 49.6935 544.5 0 381 77.301Z" fill="#A1D4F8"/>
<path opacity="0.4" d="M381 85.89C183.888 189.437 75 186.095 0 122.7V0H1441V85.89C1441 85.89 1332.15 -4.15267 1195 72.2566C1044.5 156.102 938.5 243.355 779.5 149.285C620.5 55.215 544.5 0 381 85.89Z" fill="#A1D4F8"/>
</svg>
