<svg width="1440" height="170" viewBox="0 0 1440 170" fill="none" xmlns="http://www.w3.org/2000/svg">
<path d="M376 146C230.237 176.322 154 56 0 121.453V-6.10352e-05H1441V121.453C1441 121.453 1421 154 1350 140.505C1279 127.009 1209 35.9999 1102 82.3975C1037.97 110.16 983.5 155 908 155C783.356 155 747 56 624 56C527 56 494 121.453 376 146Z" fill="#A1D4F8"/>
<path opacity="0.2" d="M376 160.129C230.237 193.385 154 61.4194 0 133.207V0H1441V133.207C1441 133.207 1421 168.903 1350 154.102C1279 139.301 1209 39.4839 1102 90.3715C1037.97 120.821 983.5 170 908 170C783.356 170 747 61.4194 624 61.4194C527 61.4194 494 133.207 376 160.129Z" fill="#A1D4F8"/>
<path opacity="0.2" d="M376 155.419C230.237 187.698 154 59.613 0 129.289V0H1441V129.289C1441 129.289 1421 163.935 1350 149.57C1279 135.204 1209 38.3226 1102 87.7135C1037.97 117.267 983.5 165 908 165C783.356 165 747 59.613 624 59.613C527 59.613 494 129.289 376 155.419Z" fill="#A1D4F8"/>
</svg>
