<svg width="1440" height="189" viewBox="0 0 1440 189" fill="none" xmlns="http://www.w3.org/2000/svg">
<path d="M714.5 102C989.863 248.774 1159 23.9999 1441 121.454V-4.57764e-05H0V77C141 180.5 260.55 167.679 378 102C530 17 580 30.309 714.5 102Z" fill="#A1D4F8"/>
<path opacity="0.4" d="M714.5 110.43C989.863 269.333 1159 25.9834 1441 131.491V-1.52588e-05H0V83.3636C141 195.417 260.55 181.537 378 110.43C530 18.405 580 32.8139 714.5 110.43Z" fill="#A1D4F8"/>
<path opacity="0.4" d="M714.5 118.413C989.863 288.803 1159 27.8618 1441 140.996V0H0V89.3899C141 209.544 260.55 194.66 378 118.413C530 19.7355 580 35.186 714.5 118.413Z" fill="#A1D4F8"/>
<path opacity="0.4" d="M714.5 125.73C989.863 306.651 1159 29.5836 1441 149.71V0H0V94.914C141 222.493 260.55 206.69 378 125.73C530 20.9551 580 37.3604 714.5 125.73Z" fill="#A1D4F8"/>
</svg>
