<svg width="1440" height="224" viewBox="0 0 1440 224" fill="none" xmlns="http://www.w3.org/2000/svg">
<path d="M1440 84.2126C1365 151.86 1276 198.172 1123 105.027C893.072 -34.9504 769 195.142 516 157C351.446 132.192 247.227 40.4449 0 183.081V0H1440V9.93103L1450 10L1440 84.2126Z" fill="#EAEEFD"/>
<path opacity="0.4" d="M1440 89.2349C1365 160.916 1276 209.99 1123 111.291C893.072 -37.0348 769 206.78 516 166.363C351.446 140.076 247.227 42.857 0 194V0H1440V10.5233L1450 10.5964L1440 89.2349Z" fill="#EAEEFD"/>
<path opacity="0.4" d="M1440 97.0545C1365 175.017 1276 228.392 1123 121.043C893.072 -40.2801 769 224.9 516 180.941C351.446 152.35 247.227 46.6125 0 211V0H1440V11.4455L1450 11.5249L1440 97.0545Z" fill="#EAEEFD"/>
<path opacity="0.4" d="M1440 103.034C1365 185.8 1276 242.463 1123 128.501C893.072 -42.7618 769 238.756 516 192.09C351.446 161.737 247.227 49.4843 0 224V0H1440V12.1506L1450 12.235L1440 103.034Z" fill="#EAEEFD"/>
</svg>
