<svg width="1440" height="200" viewBox="0 0 1440 200" fill="none" xmlns="http://www.w3.org/2000/svg">
<path d="M0 67V0H1441V108C1441 108 1372 119.566 1225 67C939 -35.2721 859 253.971 597 108C335 -37.9714 300 120 0 67Z" fill="#A1D4F8"/>
<path d="M0 73.6805V0H1441V118.769C1441 118.769 1372 131.488 1225 73.6805C939 -38.7891 859 279.294 597 118.769C335 -41.7575 300 131.965 0 73.6805Z" fill="#A1D4F8" fill-opacity="0.4"/>
<path d="M0 80.3787V0H1441V129.566C1441 129.566 1372 143.442 1225 80.3787C939 -42.3153 859 304.685 597 129.566C335 -45.5536 300 143.962 0 80.3787Z" fill="#A1D4F8" fill-opacity="0.4"/>
<path d="M0 89.3096V0H1441V143.962C1441 143.962 1372 159.38 1225 89.3096C939 -47.017 859 338.539 597 143.962C335 -50.6152 300 159.958 0 89.3096Z" fill="#A1D4F8" fill-opacity="0.4"/>
</svg>
