<?xml version="1.0" encoding="utf-8"?>
<!-- Generator: Adobe Illustrator 26.0.2, SVG Export Plug-In . SVG Version: 6.00 Build 0)  -->
<svg version="1.1" id="Layer_1" xmlns="http://www.w3.org/2000/svg" xmlns:xlink="http://www.w3.org/1999/xlink" x="0px" y="0px"
	 width="25.75px" height="25.75px" viewBox="0 0 25.75 25.75" enable-background="new 0 0 25.75 25.75" xml:space="preserve">
<g>
	<path fill-rule="evenodd" clip-rule="evenodd" fill="#4F8BC4" d="M16.27,0.45c-2.51,0.75-4.64,1.54-6.69-0.02
		C11.77-0.15,14.08-0.14,16.27,0.45z"/>
	<path fill-rule="evenodd" clip-rule="evenodd" fill="#3B7EBD" d="M9.03,25.17c1.71-0.66,3.57-1.59,5.56-0.62
		c0.58,0.29,1.01,0.59,1.46,0.81C13.74,25.94,11.31,25.88,9.03,25.17L9.03,25.17z"/>
	<path fill-rule="evenodd" clip-rule="evenodd" fill="#6298CA" d="M25.73,13.64c-0.6,0.16-1.3,0.37-2.13,0.64
		c-4.62,1.52-3.92-1.64-6.91-0.92c-3.2,0.77-5.77,2.28-8.24,0.31c-1.81-1.44-5.67,1.01-8.32,1.01C0.04,14.09,0,13.48,0,12.88
		c0-0.23,0.01-0.46,0.02-0.69c0.42-0.12,0.83-0.28,1.22-0.48c4.26-2.07,4.98,0.09,7.39,0.61c2.42,0.52,5.22-2.61,8.33-1.1
		c1.74,0.85,2.04,1.89,6.07,0.18c1.04-0.44,1.86-0.59,2.56-0.57c0.11,0.67,0.16,1.36,0.16,2.04C25.75,13.13,25.75,13.39,25.73,13.64
		z"/>
	<path fill-rule="evenodd" clip-rule="evenodd" fill="#4F8BC4" d="M20.99,9.85c-4.62,1.52-3.92-1.64-6.91-0.92
		C10.88,9.7,8.3,11.2,5.84,9.24C4.62,8.27,2.48,9.06,0.4,9.68c0.29-1.15,0.75-2.26,1.35-3.29c1.76,0,2.61,1.14,4.27,1.49
		c2.42,0.52,5.22-2.61,8.33-1.1c1.74,0.85,2.04,1.89,6.07,0.18c1.68-0.71,2.8-0.67,3.7-0.37c0.39,0.7,0.72,1.44,0.97,2.21
		C24.26,8.89,23,9.19,20.99,9.85z"/>
	<path fill-rule="evenodd" clip-rule="evenodd" fill="#4F8BC4" d="M4.13,16.15c4.26-2.07,4.98,0.09,7.39,0.61
		c2.42,0.52,5.22-2.61,8.33-1.1c1.65,0.8,2.01,1.78,5.49,0.42c-0.27,1.07-0.68,2.09-1.22,3.05c-2.12-0.1-2.21-1.89-4.54-1.33
		c-3.2,0.77-5.77,2.28-8.24,0.31c-2.19-1.74-7.36,2.19-9.78,0.63c-0.07-0.05-0.15-0.09-0.22-0.14c-0.32-0.63-0.58-1.29-0.78-1.97
		C1.44,16.93,2.52,16.94,4.13,16.15z"/>
	<path fill-rule="evenodd" clip-rule="evenodd" fill="#4584C0" d="M7.16,20.59c4.26-2.07,4.98,0.09,7.39,0.61
		c2.42,0.52,5.22-2.61,8.33-1.1c0.17,0.08,0.32,0.17,0.47,0.25c-0.59,0.83-1.28,1.58-2.05,2.25c-2.61,0.77-4.81,1.65-6.94-0.04
		c-1.9-1.52-6.06,1.26-8.71,0.99c-1.17-0.79-2.2-1.77-3.06-2.9C3.7,21.24,4.91,21.69,7.16,20.59z"/>
	<path fill-rule="evenodd" clip-rule="evenodd" fill="#4584B4" d="M22.52,4.34c-0.81-0.01-2.14,0.26-4.59,1.06
		c-4.62,1.52-3.92-1.64-6.91-0.92c-3.18,0.77-5.74,2.26-8.2,0.34C3.21,4.34,3.64,3.88,4.1,3.46c2.15-0.34,4.56-2.39,7.2-1.11
		c1.74,0.85,2.04,1.89,6.07,0.18c0.93-0.39,1.69-0.56,2.33-0.57C20.75,2.61,21.7,3.42,22.52,4.34L22.52,4.34z"/>
</g>
<g display="none">
	<path display="inline" fill="#3B7EBD" d="M34.76,18.17V6.06h1.7v12.11H34.76z M35.82,13.01V11.4h6.72v1.62H35.82z M41.64,18.17
		V6.06h1.7v12.11H41.64z"/>
	<path display="inline" fill="#3B7EBD" d="M54,6.06l-3.69,7.19v4.92h-1.7v-4.92l-3.69-7.19h1.89l2.65,5.46l2.65-5.46H54z"/>
	<path display="inline" fill="#3B7EBD" d="M55.34,18.17V6.06h1.7v12.11H55.34z M56.49,18.17v-1.62h2.74c0.89,0,1.59-0.23,2.08-0.7
		c0.49-0.46,0.74-1.12,0.74-1.96v-3.56c0-0.84-0.25-1.5-0.74-1.96c-0.49-0.46-1.18-0.7-2.08-0.7h-2.74V6.06h2.69
		c1.47,0,2.6,0.38,3.4,1.14s1.2,1.83,1.2,3.2v3.43c0,0.92-0.18,1.7-0.54,2.34c-0.36,0.65-0.89,1.14-1.57,1.48
		c-0.69,0.34-1.52,0.51-2.5,0.51H56.49z"/>
	<path display="inline" fill="#3B7EBD" d="M66.36,18.17V6.05h1.7v12.12H66.36z M67.11,13.05v-1.62h4.13c0.49,0,0.89-0.17,1.19-0.52
		s0.45-0.8,0.45-1.37s-0.15-1.02-0.45-1.37c-0.3-0.34-0.7-0.52-1.19-0.52h-4.13V6.05h4.06c0.71,0,1.32,0.15,1.85,0.44
		c0.53,0.29,0.94,0.7,1.23,1.22s0.44,1.14,0.44,1.84c0,0.7-0.15,1.31-0.44,1.84c-0.29,0.52-0.7,0.93-1.23,1.22s-1.14,0.44-1.85,0.44
		H67.11z M73.18,18.17l-2.77-5.5l1.69-0.38l3.1,5.88H73.18z"/>
	<path display="inline" fill="#3B7EBD" d="M75.9,18.17l4.46-12.11h1.45l4.46,12.11h-1.83L81.09,8.4l-3.36,9.77H75.9z M77.96,15.51
		V13.9h6.37v1.62H77.96z"/>
</g>
</svg>
